<?xml version="1.0" encoding="utf-8"?>
<!-- Generator: Adobe Illustrator 23.1.0, SVG Export Plug-In . SVG Version: 6.00 Build 0)  -->
<svg version="1.1" id="Layer_1" xmlns="http://www.w3.org/2000/svg" xmlns:xlink="http://www.w3.org/1999/xlink" x="0px" y="0px"
	 viewBox="0 0 1024 1024" style="enable-background:new 0 0 1024 1024;" xml:space="preserve">
<style type="text/css">
	.st0{fill:#47B2B7;}
	.st1{fill:#C55980;}
	.st2{fill:#252D32;}
</style>
<g>
	<path class="st0" d="M1019.9,512C1019.9,231.5,792.5,4.1,512,4.1S4.1,231.5,4.1,512c0,96.1,26.7,186,73.1,262.6V539.5
		c-0.6-9.1-0.9-18.3-0.9-27.5C76.3,271.4,271.4,76.3,512,76.3S947.7,271.4,947.7,512S752.6,947.7,512,947.7
		c-12.9,0-25.6-0.7-38.2-1.8v72.4c12.6,0.9,25.3,1.6,38.2,1.6C792.5,1019.9,1019.9,792.5,1019.9,512"/>
	<path class="st1" d="M234.3,1018h-75.7V513.1c0-94.6,36.7-183.7,103.5-250.7c66.8-67,155.5-103.8,249.9-103.8
		c94.4,0,183.1,36.9,249.9,103.8c66.8,66.9,103.5,155.9,103.5,250.7c0,94.7-36.8,183.7-103.5,250.6
		c-66.7,67-155.5,103.8-249.9,103.8h-37.8v-75.7H512c74.1,0,143.8-29,196.3-81.6c52.5-52.7,81.4-122.7,81.4-197.2
		c0-74.5-28.9-144.6-81.4-197.2c-52.4-52.6-122.1-81.6-196.3-81.6c-74.1,0-143.8,29-196.3,81.6c-52.5,52.7-81.4,122.7-81.4,197.2
		V1018z"/>
	<path class="st2" d="M392.8,1018h-75.7V512.2c0-51.9,20.3-100.7,57.2-137.4c36.8-36.6,85.7-56.7,137.6-56.7
		c52,0,100.8,20.1,137.6,56.7c36.9,36.6,57.2,85.4,57.3,137.3c0,52-20.4,100.8-57.3,137.5c-35.6,35.4-82.9,55.5-133.2,56.6
		l-37.8,0.8l-1.6-75.7l37.8-0.8c30.8-0.7,59.7-13,81.5-34.6c22.5-22.4,34.9-52.1,34.9-83.8c0-31.6-12.4-61.3-34.9-83.7
		c-22.5-22.4-52.4-34.7-84.2-34.7c-31.8,0-61.8,12.3-84.3,34.7c-22.5,22.3-34.9,52.1-34.9,83.7V1018z"/>
</g>
</svg>
